<svg width="17" height="20" viewBox="0 0 17 20" fill="none" xmlns="http://www.w3.org/2000/svg">
<path d="M16.4702 6.79707L12.3844 5.24845C12.598 4.65426 12.663 4.01861 12.5739 3.39478C12.4848 2.77094 12.2441 2.17711 11.8721 1.66306C11.5001 1.14902 11.0075 0.729736 10.4357 0.440374C9.86397 0.151011 9.22965 0 8.58594 0C7.94223 0 7.3079 0.151011 6.73613 0.440374C6.16436 0.729736 5.67182 1.14902 5.29979 1.66306C4.92776 2.17711 4.68709 2.77094 4.59796 3.39478C4.50883 4.01861 4.57383 4.65426 4.78751 5.24845L0.701714 6.79707C0.619239 6.82856 0.5484 6.88367 0.498469 6.95521C0.448538 7.02675 0.421842 7.11137 0.421875 7.198V16.4721C0.42185 16.5588 0.448633 16.6436 0.498709 16.7152C0.548784 16.7867 0.619812 16.8419 0.702468 16.8732L8.42693 19.8033C8.47765 19.8225 8.53156 19.8323 8.58594 19.8323C8.63976 19.8313 8.69291 19.8204 8.74269 19.8004L8.74495 19.8033L16.4702 16.8732C16.5527 16.8417 16.6235 16.7866 16.6735 16.715C16.7234 16.6434 16.7501 16.5587 16.75 16.4721V7.198C16.75 7.11137 16.7233 7.02675 16.6734 6.95521C16.6235 6.88367 16.5526 6.82856 16.4702 6.79707ZM15.0948 7.198L13.6688 7.73879L11.3054 6.84894C11.5747 6.60652 11.8091 6.32951 12.0023 6.02547L15.0948 7.198ZM10.4408 7.44529L12.4504 8.20166L11.3157 8.63183L9.23429 7.83613C9.65518 7.76961 10.0625 7.63766 10.4408 7.44529ZM11.8086 9.3673L13.2849 8.80734V10.5996L13.038 10.442C12.9516 10.387 12.8482 10.3634 12.7459 10.3753C12.6436 10.3873 12.5488 10.434 12.4781 10.5074L11.8086 11.2026V9.3673ZM8.58594 0.871239C9.20847 0.871239 9.81701 1.05188 10.3346 1.39032C10.8522 1.72876 11.2557 2.2098 11.4939 2.7726C11.7321 3.33541 11.7945 3.9547 11.673 4.55217C11.5516 5.14965 11.2518 5.69846 10.8116 6.12921C10.3714 6.55996 9.81056 6.85331 9.2 6.97215C8.58943 7.091 7.95656 7.03 7.38142 6.79688C6.80628 6.56376 6.31469 6.16898 5.96884 5.66247C5.62298 5.15596 5.43838 4.56046 5.43838 3.95129C5.43931 3.13469 5.77122 2.35179 6.3613 1.77437C6.95138 1.19695 7.75144 0.87215 8.58594 0.871239ZM5.42079 6.37747L4.83248 6.15255L5.16934 6.02473C5.24652 6.14694 5.33047 6.26494 5.42079 6.37821V6.37747ZM3.61993 6.61247L10.1019 9.09199L8.58594 9.66695L2.07704 7.198L3.61993 6.61247ZM1.30108 16.1773V7.8263L8.14633 10.4231V18.7741L1.30108 16.1773ZM9.02554 18.7741V10.4231L10.9294 9.70038V12.2866C10.9294 12.3728 10.9559 12.4569 11.0054 12.5282C11.0549 12.5994 11.1251 12.6545 11.207 12.6863C11.2585 12.7065 11.3135 12.7168 11.369 12.7168C11.429 12.7168 11.4883 12.7048 11.5433 12.6816C11.5983 12.6583 11.6479 12.6243 11.689 12.5816L12.8659 11.3591L13.4846 11.7524C13.5509 11.7944 13.6276 11.8181 13.7065 11.821C13.7854 11.824 13.8636 11.8061 13.933 11.7692C14.0024 11.7323 14.0604 11.6779 14.1008 11.6115C14.1413 11.5451 14.1627 11.4693 14.1629 11.3921V8.47377L15.8708 7.8263V16.1773L9.02554 18.7741Z" fill="#303136"/>
</svg>
